<svg width="55" height="65" viewBox="0 0 55 65" fill="none" xmlns="http://www.w3.org/2000/svg">
<path d="M14.0639 35.9718C12.9047 33.9628 10.3356 33.274 8.32663 34.4346C6.31763 35.5938 5.62888 38.1628 6.78948 40.1718L13.7895 52.2958C19.5883 62.3394 32.4319 65.782 42.4755 59.9818C52.5191 54.183 55.9617 41.3394 50.1615 31.2958L44.5615 21.5966C43.4023 19.5876 40.8332 18.8988 38.8242 20.0594C36.8152 21.2186 36.1279 23.7876 37.2871 25.7966L35.8871 23.3718C34.7279 21.3628 32.1588 20.674 30.1498 21.8346C28.1408 22.9938 27.4521 25.5628 28.6127 27.5718L27.2127 25.147C26.0535 23.138 23.4845 22.4492 21.4755 23.6098C19.4665 24.769 18.7776 27.338 19.9382 29.347L10.1382 12.3734C8.97903 10.3644 6.41009 9.67555 4.40109 10.8362C2.39209 11.9954 1.70326 14.5644 2.86386 16.5734L18.9639 44.46L14.0639 35.9718Z" stroke="#D5D5D5" stroke-width="4" stroke-miterlimit="10" stroke-linecap="round" stroke-linejoin="round"/>
<path d="M15.1797 5.95575C26.7507 0.049149 41.2757 1.93775 50.9581 11.6201" stroke="#61C29C" stroke-width="2" stroke-miterlimit="10" stroke-linecap="round" stroke-linejoin="round"/>
<path d="M15.1797 1.19995V6.79995L20.7797 8.19995" stroke="#61C29C" stroke-width="2" stroke-miterlimit="10" stroke-linecap="round" stroke-linejoin="round"/>
</svg>
