<svg width="62" height="66" viewBox="0 0 62 66" fill="none" xmlns="http://www.w3.org/2000/svg">
<path d="M31.6382 24.0326C32.7974 22.0236 32.11 19.4546 30.101 18.2954C28.092 17.1362 25.523 17.8236 24.3638 19.8326L17.3638 31.9566C11.565 42.0002 15.0062 54.8438 25.0498 60.6426C35.0934 66.4414 47.937 63.0002 53.7358 52.9566L59.3358 43.2574C60.495 41.2484 59.8076 38.6794 57.7986 37.5202C55.7896 36.361 53.2206 37.0484 52.0614 39.0574L53.4614 36.6326C54.6206 34.6236 53.9331 32.0546 51.9241 30.8954C49.9151 29.7362 47.3462 30.4236 46.187 32.4326L47.587 30.0078C48.7462 27.9988 48.0588 25.4298 46.0498 24.2706C44.0408 23.1114 41.4718 23.7988 40.3126 25.8078L50.1126 8.83421C51.2718 6.82521 50.5844 4.25621 48.5754 3.09701C46.5664 1.93781 43.9974 2.62521 42.8382 4.63421L26.7382 32.5208L31.6382 24.0326Z" stroke="#D7D7D7" stroke-width="4" stroke-miterlimit="10" stroke-linecap="round" stroke-linejoin="round"/>
<path d="M34.0785 5.95578C23.5757 0.595183 10.6397 1.65638 1.1001 9.13798" stroke="#61C29C" stroke-width="2" stroke-miterlimit="10" stroke-linecap="round" stroke-linejoin="round"/>
<path d="M34.7001 1.19995V6.79995L29.1001 8.19995" stroke="#61C29C" stroke-width="2" stroke-miterlimit="10" stroke-linecap="round" stroke-linejoin="round"/>
</svg>
