<svg width="11" height="17" viewBox="0 0 11 17" fill="none" xmlns="http://www.w3.org/2000/svg">
<path d="M7.09999 8.3625L1.24999 2.5125C0.974993 2.2375 0.837494 1.8875 0.837494 1.4625C0.837494 1.0375 0.974993 0.687499 1.24999 0.412499C1.52499 0.137499 1.87499 0 2.29999 0C2.72499 0 3.07499 0.137499 3.34999 0.412499L10.25 7.3125C10.4 7.4625 10.5065 7.625 10.5695 7.8C10.6325 7.975 10.6635 8.1625 10.6625 8.3625C10.6615 8.5625 10.6305 8.75 10.5695 8.925C10.5085 9.1 10.402 9.2625 10.25 9.4125L3.34999 16.3125C3.07499 16.5875 2.72499 16.725 2.29999 16.725C1.87499 16.725 1.52499 16.5875 1.24999 16.3125C0.974993 16.0375 0.837494 15.6875 0.837494 15.2625C0.837494 14.8375 0.974993 14.4875 1.24999 14.2125L7.09999 8.3625Z" fill="#1D2433"/>
</svg>
