<svg width="25" height="24" viewBox="0 0 25 24" fill="none" xmlns="http://www.w3.org/2000/svg">
<g clip-path="url(#clip0_9_134)">
<path d="M24.826 12.3L24.121 7.3C23.9477 6.10993 23.3533 5.02151 22.4457 4.23247C21.5381 3.44343 20.3776 3.00612 19.175 3H5.87499C4.5494 3.00159 3.27855 3.52888 2.34121 4.46622C1.40387 5.40356 0.87658 6.67441 0.874992 8L0.874992 13C0.87658 14.3256 1.40387 15.5964 2.34121 16.5338C3.27855 17.4711 4.5494 17.9984 5.87499 18H8.58699L10.501 21.878C10.8228 22.5316 11.3687 23.0478 12.0394 23.3323C12.71 23.6169 13.4606 23.6509 14.1542 23.4282C14.8478 23.2055 15.4383 22.7409 15.8179 22.1191C16.1974 21.4973 16.3409 20.7597 16.222 20.041L15.886 18H19.875C20.5908 18 21.2982 17.8464 21.9495 17.5494C22.6008 17.2525 23.1807 16.8192 23.6501 16.2788C24.1195 15.7384 24.4673 15.1036 24.6702 14.4171C24.8731 13.7307 24.9262 13.0087 24.826 12.3ZM5.87499 5H7.87499V16H5.87499C5.07934 16 4.31628 15.6839 3.75367 15.1213C3.19106 14.5587 2.87499 13.7956 2.87499 13V8C2.87499 7.20435 3.19106 6.44129 3.75367 5.87868C4.31628 5.31607 5.07934 5 5.87499 5ZM22.139 14.968C21.8574 15.292 21.5096 15.5517 21.119 15.7298C20.7285 15.9078 20.3042 16 19.875 16H14.708C14.5629 16 14.4196 16.0315 14.288 16.0924C14.1563 16.1533 14.0395 16.2421 13.9456 16.3526C13.8517 16.4632 13.783 16.5928 13.7442 16.7326C13.7054 16.8723 13.6975 17.0189 13.721 17.162L14.249 20.362C14.2744 20.5105 14.2666 20.6628 14.2263 20.808C14.1861 20.9532 14.1142 21.0878 14.016 21.202C13.9008 21.3262 13.7578 21.4213 13.5987 21.4794C13.4395 21.5375 13.2689 21.557 13.1008 21.5363C12.9327 21.5156 12.7719 21.4553 12.6316 21.3603C12.4913 21.2653 12.3756 21.1384 12.294 20.99L10.105 16.558C10.0472 16.4471 9.96924 16.3481 9.87499 16.266V5H19.175C19.8973 5.00264 20.5945 5.26473 21.1397 5.7385C21.6849 6.21227 22.0416 6.86616 22.145 7.581L22.851 12.581C22.9102 13.0067 22.8773 13.4401 22.7544 13.8519C22.6316 14.2637 22.4217 14.6443 22.139 14.968Z" fill="#313131"/>
</g>
<defs>
<clipPath id="clip0_9_134">
<rect width="24" height="24" fill="white" transform="translate(0.875)"/>
</clipPath>
</defs>
</svg>
