<svg width="25" height="24" viewBox="0 0 25 24" fill="none" xmlns="http://www.w3.org/2000/svg">
<g clip-path="url(#clip0_9_242)">
<path d="M19.375 3.00024H12.847C12.6923 3.00127 12.5395 2.96707 12.4 2.90024L9.244 1.31624C8.82739 1.10879 8.3684 1.00063 7.903 1.00024H5.375C4.04941 1.00183 2.77856 1.52913 1.84122 2.46646C0.903882 3.4038 0.376588 4.67465 0.375 6.00024L0.375 18.0002C0.376588 19.3258 0.903882 20.5967 1.84122 21.534C2.77856 22.4714 4.04941 22.9987 5.375 23.0002H19.375C20.7006 22.9987 21.9714 22.4714 22.9088 21.534C23.8461 20.5967 24.3734 19.3258 24.375 18.0002V8.00024C24.3734 6.67465 23.8461 5.4038 22.9088 4.46646C21.9714 3.52913 20.7006 3.00183 19.375 3.00024ZM5.375 3.00024H7.903C8.05766 2.99922 8.21052 3.03342 8.35 3.10024L11.506 4.67924C11.9222 4.88843 12.3812 4.99831 12.847 5.00024H19.375C19.973 5.00122 20.5571 5.18091 21.0523 5.51626C21.5475 5.8516 21.9311 6.32728 22.154 6.88224L2.375 6.99424V6.00024C2.375 5.20459 2.69107 4.44153 3.25368 3.87892C3.81629 3.31631 4.57935 3.00024 5.375 3.00024ZM19.375 21.0002H5.375C4.57935 21.0002 3.81629 20.6842 3.25368 20.1216C2.69107 19.559 2.375 18.7959 2.375 18.0002V8.99424L22.375 8.88124V18.0002C22.375 18.7959 22.0589 19.559 21.4963 20.1216C20.9337 20.6842 20.1706 21.0002 19.375 21.0002Z" fill="#313131"/>
</g>
<defs>
<clipPath id="clip0_9_242">
<rect width="24" height="24" fill="white" transform="translate(0.375)"/>
</clipPath>
</defs>
</svg>
