<svg width="25" height="24" viewBox="0 0 25 24" fill="none" xmlns="http://www.w3.org/2000/svg">
<g clip-path="url(#clip0_9_326)">
<path d="M3.47402 23.55C4.02007 23.7834 4.62377 23.8467 5.20637 23.7319C5.78898 23.617 6.32343 23.3292 6.74002 22.906L12.625 17.053L18.51 22.906C18.7844 23.1844 19.1113 23.4056 19.4718 23.5568C19.8322 23.7081 20.2191 23.7863 20.61 23.787C21.0118 23.7858 21.4094 23.7053 21.78 23.55C22.3305 23.3272 22.8011 22.9436 23.1302 22.4493C23.4594 21.9549 23.6318 21.3728 23.625 20.779V5C23.6234 3.67441 23.0961 2.40356 22.1588 1.46622C21.2215 0.528882 19.9506 0.00158786 18.625 0L6.62502 0C5.29943 0.00158786 4.02858 0.528882 3.09124 1.46622C2.1539 2.40356 1.62661 3.67441 1.62502 5V20.779C1.61857 21.3733 1.7916 21.9557 2.12149 22.4501C2.45137 22.9445 2.92276 23.3278 3.47402 23.55Z" fill="#374957"/>
</g>
<defs>
<clipPath id="clip0_9_326">
<rect width="24" height="24" fill="white" transform="translate(0.625)"/>
</clipPath>
</defs>
</svg>
