<svg width="25" height="24" viewBox="0 0 25 24" fill="none" xmlns="http://www.w3.org/2000/svg">
<g clip-path="url(#clip0_9_238)">
<path d="M17.875 0C17.6098 0 17.3554 0.105357 17.1679 0.292893C16.9804 0.48043 16.875 0.734784 16.875 1C16.875 3.949 14.292 5 11.875 5H4.875C3.81413 5 2.79672 5.42143 2.04657 6.17157C1.29643 6.92172 0.875 7.93913 0.875 9L0.875 11C0.877184 11.5987 1.01446 12.1893 1.2766 12.7276C1.53874 13.2659 1.91899 13.7381 2.389 14.109L5.961 22.081C6.21504 22.6521 6.62917 23.1373 7.15327 23.4779C7.67737 23.8185 8.28896 23.9998 8.914 24C9.41131 23.9997 9.90065 23.875 10.3375 23.6373C10.7743 23.3996 11.1447 23.0564 11.415 22.639C11.6854 22.2215 11.847 21.7431 11.8853 21.2473C11.9235 20.7515 11.8371 20.2539 11.634 19.8L9.434 15H11.875C14.292 15 16.875 16.051 16.875 19C16.875 19.2652 16.9804 19.5196 17.1679 19.7071C17.3554 19.8946 17.6098 20 17.875 20C18.1402 20 18.3946 19.8946 18.5821 19.7071C18.7696 19.5196 18.875 19.2652 18.875 19V1C18.875 0.734784 18.7696 0.48043 18.5821 0.292893C18.3946 0.105357 18.1402 0 17.875 0V0ZM9.812 20.619C9.87824 20.7686 9.90609 20.9323 9.89304 21.0954C9.88 21.2585 9.82645 21.4157 9.73727 21.5529C9.64809 21.69 9.52609 21.8027 9.38233 21.8808C9.23857 21.9589 9.07759 21.9999 8.914 22C8.6754 21.9998 8.44197 21.9304 8.24209 21.8001C8.0422 21.6698 7.88445 21.4842 7.788 21.266L4.98 15H7.234L9.812 20.619ZM16.875 14.6C15.4463 13.4992 13.6774 12.9331 11.875 13H4.875C4.34457 13 3.83586 12.7893 3.46079 12.4142C3.08571 12.0391 2.875 11.5304 2.875 11V9C2.875 8.46957 3.08571 7.96086 3.46079 7.58579C3.83586 7.21071 4.34457 7 4.875 7H11.875C13.6768 7.0683 15.4456 6.50403 16.875 5.405V14.6ZM24.775 15.452C24.7163 15.5696 24.6351 15.6744 24.5359 15.7606C24.4367 15.8467 24.3215 15.9125 24.1968 15.9541C24.0722 15.9957 23.9406 16.0123 23.8095 16.0031C23.6785 15.9938 23.5505 15.9588 23.433 15.9L21.433 14.9C21.1956 14.7814 21.0151 14.5735 20.9311 14.3218C20.847 14.0701 20.8665 13.7954 20.985 13.558C21.1036 13.3206 21.3115 13.1401 21.5632 13.0561C21.8149 12.972 22.0896 12.9914 22.327 13.11L24.327 14.11C24.5632 14.2285 24.7428 14.4356 24.8268 14.6861C24.9107 14.9366 24.8921 15.2102 24.775 15.447V15.452ZM20.985 6.452C20.9262 6.33448 20.8912 6.20653 20.8819 6.07546C20.8727 5.9444 20.8893 5.81279 20.9309 5.68816C20.9725 5.56353 21.0383 5.44832 21.1244 5.34912C21.2106 5.24991 21.3154 5.16866 21.433 5.11L23.433 4.11C23.6704 3.99145 23.9451 3.97205 24.1968 4.05606C24.4485 4.14008 24.6565 4.32063 24.775 4.558C24.8936 4.79537 24.913 5.07011 24.8289 5.32178C24.7449 5.57346 24.5644 5.78145 24.327 5.9L22.327 6.9C22.2095 6.95876 22.0815 6.99378 21.9505 7.00306C21.8194 7.01234 21.6878 6.99571 21.5632 6.9541C21.4385 6.9125 21.3233 6.84674 21.2241 6.76058C21.1249 6.67443 21.0437 6.56957 20.985 6.452ZM20.875 10C20.875 9.73478 20.9804 9.48043 21.1679 9.29289C21.3554 9.10536 21.6098 9 21.875 9H23.875C24.1402 9 24.3946 9.10536 24.5821 9.29289C24.7696 9.48043 24.875 9.73478 24.875 10C24.875 10.2652 24.7696 10.5196 24.5821 10.7071C24.3946 10.8946 24.1402 11 23.875 11H21.875C21.6098 11 21.3554 10.8946 21.1679 10.7071C20.9804 10.5196 20.875 10.2652 20.875 10Z" fill="#313131"/>
</g>
<defs>
<clipPath id="clip0_9_238">
<rect width="24" height="24" fill="white" transform="translate(0.875)"/>
</clipPath>
</defs>
</svg>
