<svg width="25" height="24" viewBox="0 0 25 24" fill="none" xmlns="http://www.w3.org/2000/svg">
<g clip-path="url(#clip0_9_226)">
<path d="M12.5 10C11.7044 10 10.9413 9.68393 10.3787 9.12132C9.81607 8.55871 9.5 7.79565 9.5 7C9.5 6.20435 9.81607 5.44129 10.3787 4.87868C10.9413 4.31607 11.7044 4 12.5 4C13.2956 4 14.0587 4.31607 14.6213 4.87868C15.1839 5.44129 15.5 6.20435 15.5 7C15.5 7.79565 15.1839 8.55871 14.6213 9.12132C14.0587 9.68393 13.2956 10 12.5 10ZM9.468 15.249C9.67364 14.6065 10.0781 14.046 10.6229 13.6483C11.1678 13.2506 11.8249 13.0363 12.4995 13.0363C13.1741 13.0363 13.8312 13.2506 14.3761 13.6483C14.9209 14.046 15.3254 14.6065 15.531 15.249C15.5973 15.506 15.763 15.7261 15.9916 15.861C16.2202 15.9958 16.493 16.0343 16.75 15.968C17.007 15.9017 17.2271 15.736 17.362 15.5074C17.4968 15.2788 17.5353 15.006 17.469 14.749C16.158 9.802 8.839 9.804 7.532 14.749C7.4959 14.8772 7.48576 15.0113 7.50217 15.1434C7.51859 15.2755 7.56123 15.4031 7.62759 15.5185C7.69396 15.634 7.78271 15.735 7.88865 15.8157C7.99458 15.8963 8.11556 15.9551 8.24448 15.9884C8.37341 16.0217 8.50769 16.0289 8.63944 16.0096C8.7712 15.9903 8.89777 15.9449 9.01174 15.876C9.1257 15.8071 9.22477 15.7162 9.30312 15.6085C9.38147 15.5009 9.43752 15.3786 9.468 15.249ZM12.509 23.665C12.0156 23.6653 11.5394 23.4841 11.171 23.156L7.423 20H4.5C3.43913 20 2.42172 19.5786 1.67157 18.8284C0.921427 18.0783 0.5 17.0609 0.5 16V4C0.5 2.93913 0.921427 1.92172 1.67157 1.17157C2.42172 0.421427 3.43913 0 4.5 0L20.5 0C21.5609 0 22.5783 0.421427 23.3284 1.17157C24.0786 1.92172 24.5 2.93913 24.5 4V16C24.5 17.0609 24.0786 18.0783 23.3284 18.8284C22.5783 19.5786 21.5609 20 20.5 20H17.647L13.8 23.18C13.4436 23.4943 12.9842 23.6669 12.509 23.665ZM4.5 2C3.96957 2 3.46086 2.21071 3.08579 2.58579C2.71071 2.96086 2.5 3.46957 2.5 4V16C2.5 16.5304 2.71071 17.0391 3.08579 17.4142C3.46086 17.7893 3.96957 18 4.5 18H7.789C8.02465 18 8.25273 18.0832 8.433 18.235L12.479 21.645L16.651 18.229C16.8303 18.0809 17.0555 18 17.288 18H20.5C21.0304 18 21.5391 17.7893 21.9142 17.4142C22.2893 17.0391 22.5 16.5304 22.5 16V4C22.5 3.46957 22.2893 2.96086 21.9142 2.58579C21.5391 2.21071 21.0304 2 20.5 2H4.5Z" fill="#313131"/>
</g>
<defs>
<clipPath id="clip0_9_226">
<rect width="24" height="24" fill="white" transform="translate(0.5)"/>
</clipPath>
</defs>
</svg>
