<svg width="25" height="24" viewBox="0 0 25 24" fill="none" xmlns="http://www.w3.org/2000/svg">
<g clip-path="url(#clip0_9_258)">
<path d="M0.375 22.9992V15.9993C0.377647 13.6131 1.32671 11.3255 3.01396 9.63822C4.70122 7.95097 6.98886 7.00191 9.375 6.99927H14.205V5.41327C14.2051 5.01777 14.3224 4.63117 14.5422 4.30235C14.762 3.97353 15.0743 3.71725 15.4397 3.56591C15.8051 3.41457 16.2072 3.37497 16.5951 3.4521C16.983 3.52924 17.3393 3.71965 17.619 3.99927L23.499 9.87826C24.0614 10.4408 24.3774 11.2038 24.3774 11.9993C24.3774 12.7948 24.0614 13.5577 23.499 14.1203L17.619 19.9992C17.3393 20.2789 16.983 20.4693 16.5951 20.5464C16.2072 20.6235 15.8051 20.5839 15.4397 20.4326C15.0743 20.2813 14.762 20.025 14.5422 19.6962C14.3224 19.3673 14.2051 18.9808 14.205 18.5852V16.9993H8.375C6.78419 17.0008 5.25899 17.6335 4.13411 18.7584C3.00924 19.8832 2.37659 21.4084 2.375 22.9992C2.375 23.2645 2.26964 23.5188 2.08211 23.7063C1.89457 23.8939 1.64022 23.9992 1.375 23.9992C1.10978 23.9992 0.85543 23.8939 0.667893 23.7063C0.480357 23.5188 0.375 23.2645 0.375 22.9992ZM16.205 7.99926C16.205 8.26448 16.0996 8.51883 15.9121 8.70637C15.7246 8.89391 15.4702 8.99926 15.205 8.99926H9.375C7.51914 9.00138 5.73989 9.73956 4.42759 11.0519C3.1153 12.3641 2.37712 14.1434 2.375 15.9993V17.7133C3.12457 16.8602 4.04749 16.1768 5.08215 15.7088C6.11682 15.2408 7.23941 14.9989 8.375 14.9993H15.205C15.4702 14.9993 15.7246 15.1046 15.9121 15.2921C16.0996 15.4797 16.205 15.734 16.205 15.9993V18.5852L22.084 12.7063C22.2715 12.5187 22.3768 12.2644 22.3768 11.9993C22.3768 11.7341 22.2715 11.4798 22.084 11.2923L16.205 5.41327V7.99926Z" fill="#313131"/>
</g>
<defs>
<clipPath id="clip0_9_258">
<rect width="24" height="24" fill="white" transform="translate(0.375)"/>
</clipPath>
</defs>
</svg>
