<svg width="113" height="113" viewBox="0 0 113 113" fill="none" xmlns="http://www.w3.org/2000/svg">
<path d="M44.9645 71.3312L84.8677 31.4281C85.8093 30.4865 86.9079 30.0156 88.1635 30.0156C89.4191 30.0156 90.5177 30.4865 91.4593 31.4281C92.401 32.3698 92.8718 33.4888 92.8718 34.7852C92.8718 36.0815 92.401 37.199 91.4593 38.1375L48.2604 81.4542C47.3187 82.3958 46.2201 82.8667 44.9645 82.8667C43.709 82.8667 42.6104 82.3958 41.6687 81.4542L21.4229 61.2083C20.4812 60.2667 20.0292 59.1492 20.0669 57.856C20.1045 56.5628 20.5958 55.4438 21.5406 54.499C22.4854 53.5542 23.6044 53.0833 24.8976 53.0865C26.1908 53.0896 27.3083 53.5604 28.25 54.499L44.9645 71.3312Z" fill="white"/>
</svg>
