<svg width="25" height="24" viewBox="0 0 25 24" fill="none" xmlns="http://www.w3.org/2000/svg">
<g clip-path="url(#clip0_9_214)">
<path d="M24.5 15.9999V20.9999C24.5 21.7955 24.1839 22.5586 23.6213 23.1212C23.0587 23.6838 22.2956 23.9999 21.5 23.9999H16.5C15.0971 23.9985 13.7192 23.6281 12.5047 22.926C11.2901 22.224 10.2815 21.2148 9.58 19.9999C10.3339 19.9945 11.0852 19.9114 11.822 19.7519C12.3832 20.4535 13.095 21.0199 13.9048 21.4091C14.7146 21.7982 15.6016 22.0001 16.5 21.9999H21.5C21.7652 21.9999 22.0196 21.8945 22.2071 21.707C22.3946 21.5195 22.5 21.2651 22.5 20.9999V15.9999C22.4998 15.1011 22.2972 14.2139 21.9074 13.4041C21.5175 12.5943 20.9504 11.8826 20.248 11.3219C20.4088 10.5852 20.4933 9.8339 20.5 9.07989C21.715 9.78134 22.7241 10.79 23.4262 12.0045C24.1282 13.2191 24.4986 14.597 24.5 15.9999ZM18.477 9.65089C18.5705 8.36253 18.3856 7.06913 17.9348 5.85859C17.4841 4.64804 16.778 3.54871 15.8646 2.63531C14.9512 1.7219 13.8518 1.01582 12.6413 0.565046C11.4308 0.114271 10.1374 -0.0706368 8.849 0.0228889C6.56592 0.283621 4.45693 1.37006 2.91918 3.07763C1.38143 4.7852 0.521027 6.99606 0.5 9.29389L0.5 14.3339C0.5 16.8659 2.007 17.9999 3.5 17.9999H9.2C11.4988 17.9801 13.711 17.1203 15.4198 15.5824C17.1286 14.0446 18.2159 11.9349 18.477 9.65089ZM14.45 4.05089C15.1599 4.76239 15.7088 5.61809 16.0593 6.56008C16.4099 7.50207 16.554 8.50837 16.482 9.51089C16.2686 11.2946 15.4105 12.9387 14.0693 14.1338C12.7282 15.3289 10.9964 15.9926 9.2 15.9999H3.5C2.572 15.9999 2.5 14.7249 2.5 14.3339V9.29389C2.50834 7.49826 3.17265 5.76759 4.36792 4.42757C5.56319 3.08754 7.20699 2.23056 8.99 2.01789C9.156 2.00589 9.322 1.99989 9.488 1.99989C10.4093 1.99903 11.3217 2.17973 12.1731 2.53165C13.0245 2.88357 13.7982 3.39982 14.45 4.05089Z" fill="#313131"/>
</g>
<defs>
<clipPath id="clip0_9_214">
<rect width="24" height="24" fill="white" transform="translate(0.5)"/>
</clipPath>
</defs>
</svg>
