<svg width="25" height="24" viewBox="0 0 25 24" fill="none" xmlns="http://www.w3.org/2000/svg">
<g clip-path="url(#clip0_9_303)">
<path d="M22.8982 7.72138C22.4292 7.18098 21.8497 6.74766 21.1987 6.45073C20.5478 6.15381 19.8406 6.00023 19.1252 6.00038H15.1362L15.4722 3.95938C15.591 3.24064 15.4476 2.50311 15.068 1.88132C14.6884 1.25952 14.098 0.79489 13.4043 0.572169C12.7107 0.349448 11.9602 0.383478 11.2895 0.668053C10.6189 0.952627 10.0729 1.46878 9.75115 2.12238L8.12515 5.41738V21.0004H18.4252C19.6286 20.9955 20.7903 20.5587 21.699 19.7695C22.6076 18.9804 23.2027 17.8913 23.3762 16.7004L24.0812 11.7004C24.1808 10.9911 24.1268 10.2687 23.9227 9.58214C23.7186 8.89559 23.3691 8.26099 22.8982 7.72138Z" fill="#374957"/>
<path d="M0.125 11V16C0.126588 17.3256 0.653882 18.5964 1.59122 19.5338C2.52856 20.4711 3.79941 20.9984 5.125 21H6.125V6H5.125C3.79941 6.00159 2.52856 6.52888 1.59122 7.46622C0.653882 8.40356 0.126588 9.67441 0.125 11H0.125Z" fill="#374957"/>
</g>
<defs>
<clipPath id="clip0_9_303">
<rect width="24" height="24" fill="white" transform="translate(0.125)"/>
</clipPath>
</defs>
</svg>
