<svg width="25" height="24" viewBox="0 0 25 24" fill="none" xmlns="http://www.w3.org/2000/svg">
<g clip-path="url(#clip0_9_131)">
<path d="M23.148 7.72138C22.6791 7.18098 22.0995 6.74766 21.4486 6.45073C20.7976 6.15381 20.0905 6.00023 19.375 6.00038H15.386L15.722 3.95938C15.8409 3.24064 15.6975 2.50311 15.3179 1.88132C14.9383 1.25952 14.3478 0.79489 13.6542 0.572169C12.9606 0.349448 12.21 0.383478 11.5394 0.668053C10.8688 0.952627 10.3228 1.46878 10.001 2.12238L8.087 6.00038H5.375C4.04941 6.00197 2.77856 6.52926 1.84122 7.4666C0.903882 8.40393 0.376588 9.67478 0.375 11.0004L0.375 16.0004C0.376588 17.326 0.903882 18.5968 1.84122 19.5342C2.77856 20.4715 4.04941 20.9988 5.375 21.0004H18.675C19.8785 20.9955 21.0402 20.5587 21.9488 19.7695C22.8574 18.9804 23.4526 17.8913 23.626 16.7004L24.331 11.7004C24.4303 10.9911 24.376 10.2688 24.1719 9.58231C23.9678 8.89582 23.6187 8.2612 23.148 7.72138ZM2.375 16.0004V11.0004C2.375 10.2047 2.69107 9.44167 3.25368 8.87906C3.81629 8.31645 4.57935 8.00038 5.375 8.00038H7.375V19.0004H5.375C4.57935 19.0004 3.81629 18.6843 3.25368 18.1217C2.69107 17.5591 2.375 16.796 2.375 16.0004ZM22.346 11.4194L21.64 16.4194C21.5368 17.1334 21.1807 17.7866 20.6366 18.2603C20.0925 18.7339 19.3964 18.9965 18.675 19.0004H9.375V7.73438C9.46924 7.65227 9.54726 7.55323 9.605 7.44238L11.794 3.00738C11.8761 2.85931 11.9921 2.73283 12.1326 2.63834C12.2731 2.54385 12.434 2.48404 12.6021 2.46384C12.7702 2.44363 12.9407 2.4636 13.0996 2.5221C13.2584 2.58061 13.4012 2.67598 13.516 2.80038C13.6142 2.91462 13.6861 3.04915 13.7263 3.19435C13.7666 3.33955 13.7744 3.49184 13.749 3.64038L13.221 6.84038C13.1978 6.98336 13.206 7.12967 13.2449 7.26918C13.2839 7.4087 13.3526 7.53809 13.4465 7.64841C13.5404 7.75872 13.6571 7.84733 13.7886 7.90811C13.92 7.96888 14.0632 8.00036 14.208 8.00038H19.375C19.8044 8.00032 20.2288 8.09244 20.6195 8.27052C21.0103 8.4486 21.3582 8.70849 21.6399 9.03261C21.9215 9.35674 22.1303 9.73755 22.2522 10.1493C22.374 10.5611 22.406 10.9942 22.346 11.4194Z" fill="#313131"/>
</g>
<defs>
<clipPath id="clip0_9_131">
<rect width="24" height="24" fill="white" transform="translate(0.375)"/>
</clipPath>
</defs>
</svg>
