<svg width="25" height="24" viewBox="0 0 25 24" fill="none" xmlns="http://www.w3.org/2000/svg">
<g clip-path="url(#clip0_9_329)">
<path d="M17.369 3.99927C17.0893 3.71965 16.733 3.52924 16.3451 3.4521C15.9572 3.37497 15.5551 3.41457 15.1897 3.56591C14.8243 3.71725 14.512 3.97353 14.2922 4.30235C14.0724 4.63117 13.9551 5.01777 13.955 5.41327V6.99927H9.125C6.73886 7.00191 4.45122 7.95097 2.76396 9.63822C1.07671 11.3255 0.127647 13.6131 0.125 15.9993L0.125 22.9992C0.125 23.2645 0.230357 23.5188 0.417893 23.7063C0.60543 23.8939 0.859784 23.9992 1.125 23.9992C1.39022 23.9992 1.64457 23.8939 1.83211 23.7063C2.01964 23.5188 2.125 23.2645 2.125 22.9992C2.12659 21.4084 2.75924 19.8832 3.88411 18.7584C5.00899 17.6335 6.53419 17.0008 8.125 16.9993H13.955V18.5852C13.9551 18.9808 14.0724 19.3673 14.2922 19.6962C14.512 20.025 14.8243 20.2813 15.1897 20.4326C15.5551 20.5839 15.9572 20.6235 16.3451 20.5464C16.733 20.4693 17.0893 20.2789 17.369 19.9992L23.248 14.1203C23.8104 13.5577 24.1264 12.7948 24.1264 11.9993C24.1264 11.2038 23.8104 10.4408 23.248 9.87826L17.369 3.99927Z" fill="#374957"/>
</g>
<defs>
<clipPath id="clip0_9_329">
<rect width="24" height="24" fill="white" transform="translate(0.125)"/>
</clipPath>
</defs>
</svg>
