<svg width="11" height="17" viewBox="0 0 11 17" fill="none" xmlns="http://www.w3.org/2000/svg">
<path d="M3.90002 8.3625L9.75002 14.2125C10.025 14.4875 10.1625 14.8375 10.1625 15.2625C10.1625 15.6875 10.025 16.0375 9.75002 16.3125C9.47502 16.5875 9.12502 16.725 8.70002 16.725C8.27502 16.725 7.92502 16.5875 7.65002 16.3125L0.750016 9.4125C0.600016 9.2625 0.494017 9.1 0.432017 8.925C0.370017 8.75 0.338517 8.5625 0.337517 8.3625C0.336517 8.1625 0.368017 7.975 0.432017 7.8C0.496017 7.625 0.602016 7.4625 0.750016 7.3125L7.65002 0.412499C7.92502 0.137499 8.27502 0 8.70002 0C9.12502 0 9.47502 0.137499 9.75002 0.412499C10.025 0.687499 10.1625 1.0375 10.1625 1.4625C10.1625 1.8875 10.025 2.2375 9.75002 2.5125L3.90002 8.3625Z" fill="#1D2433"/>
</svg>
