<svg width="25" height="24" viewBox="0 0 25 24" fill="none" xmlns="http://www.w3.org/2000/svg">
<g clip-path="url(#clip0_9_344)">
<path d="M23.625 16C23.4702 16 23.3175 15.964 23.179 15.895L21.179 14.895C20.9416 14.7764 20.7611 14.5685 20.6771 14.3168C20.5931 14.0651 20.6125 13.7904 20.731 13.553C20.8496 13.3156 21.0575 13.1351 21.3092 13.0511C21.5609 12.967 21.8356 12.9864 22.073 13.105L24.073 14.105C24.2749 14.2056 24.4368 14.3715 24.5325 14.5757C24.6282 14.78 24.652 15.0106 24.6001 15.2301C24.5482 15.4496 24.4237 15.6451 24.2466 15.7848C24.0696 15.9246 23.8505 16.0004 23.625 16ZM22.072 6.9L24.072 5.9C24.3094 5.78145 24.4899 5.57346 24.5739 5.32178C24.658 5.07011 24.6386 4.79537 24.52 4.558C24.4015 4.32063 24.1935 4.14008 23.9418 4.05606C23.6901 3.97205 23.4154 3.99145 23.178 4.11L21.178 5.11C20.9406 5.22855 20.7601 5.43654 20.6761 5.68822C20.5921 5.93989 20.6115 6.21463 20.73 6.452C20.8486 6.68937 21.0565 6.86992 21.3082 6.95394C21.5599 7.03795 21.8346 7.01855 22.072 6.9ZM24.625 10C24.625 9.73478 24.5196 9.48043 24.3321 9.29289C24.1446 9.10536 23.8902 9 23.625 9H21.625C21.3598 9 21.1054 9.10536 20.9179 9.29289C20.7304 9.48043 20.625 9.73478 20.625 10C20.625 10.2652 20.7304 10.5196 20.9179 10.7071C21.1054 10.8946 21.3598 11 21.625 11H23.625C23.8902 11 24.1446 10.8946 24.3321 10.7071C24.5196 10.5196 24.625 10.2652 24.625 10ZM18.625 19V1C18.625 0.734784 18.5196 0.48043 18.3321 0.292893C18.1446 0.105357 17.8902 0 17.625 0C17.3598 0 17.1054 0.105357 16.9179 0.292893C16.7304 0.48043 16.625 0.734784 16.625 1C16.625 3.949 14.042 5 11.625 5H4.625C3.56413 5 2.54672 5.42143 1.79657 6.17157C1.04643 6.92172 0.625 7.93913 0.625 9L0.625 11C0.625 12.0609 1.04643 13.0783 1.79657 13.8284C2.54672 14.5786 3.56413 15 4.625 15H11.625C14.042 15 16.625 16.051 16.625 19C16.625 19.2652 16.7304 19.5196 16.9179 19.7071C17.1054 19.8946 17.3598 20 17.625 20C17.8902 20 18.1446 19.8946 18.3321 19.7071C18.5196 19.5196 18.625 19.2652 18.625 19ZM8.811 17H4.625C4.15941 16.9981 3.69563 16.9421 3.243 16.833L5.743 22.415C5.95296 22.8868 6.29519 23.2876 6.72824 23.5689C7.16129 23.8502 7.6666 24 8.183 24C8.59385 23.9995 8.99804 23.8961 9.35872 23.6993C9.71939 23.5026 10.0251 23.2187 10.248 22.8736C10.4708 22.5284 10.6038 22.133 10.6347 21.7233C10.6656 21.3136 10.5935 20.9027 10.425 20.528L8.811 17Z" fill="#374957"/>
</g>
<defs>
<clipPath id="clip0_9_344">
<rect width="24" height="24" fill="white" transform="translate(0.625)"/>
</clipPath>
</defs>
</svg>
