<svg width="29" height="28" viewBox="0 0 29 28" fill="none" xmlns="http://www.w3.org/2000/svg">
<path d="M14.4999 15.6333L8.78327 21.35C8.56938 21.5639 8.29716 21.6708 7.9666 21.6708C7.63605 21.6708 7.36382 21.5639 7.14993 21.35C6.93605 21.1361 6.8291 20.8639 6.8291 20.5333C6.8291 20.2028 6.93605 19.9306 7.14993 19.7167L12.8666 14L7.14993 8.28333C6.93605 8.06944 6.8291 7.79722 6.8291 7.46666C6.8291 7.13611 6.93605 6.86388 7.14993 6.65C7.36382 6.43611 7.63605 6.32916 7.9666 6.32916C8.29716 6.32916 8.56938 6.43611 8.78327 6.65L14.4999 12.3667L20.2166 6.65C20.4305 6.43611 20.7027 6.32916 21.0333 6.32916C21.3638 6.32916 21.636 6.43611 21.8499 6.65C22.0638 6.86388 22.1708 7.13611 22.1708 7.46666C22.1708 7.79722 22.0638 8.06944 21.8499 8.28333L16.1333 14L21.8499 19.7167C22.0638 19.9306 22.1708 20.2028 22.1708 20.5333C22.1708 20.8639 22.0638 21.1361 21.8499 21.35C21.636 21.5639 21.3638 21.6708 21.0333 21.6708C20.7027 21.6708 20.4305 21.5639 20.2166 21.35L14.4999 15.6333Z" fill="#5564AE"/>
</svg>
