<svg width="25" height="24" viewBox="0 0 25 24" fill="none" xmlns="http://www.w3.org/2000/svg">
<g clip-path="url(#clip0_9_261)">
<path d="M21.0121 24C20.6422 23.999 20.2761 23.9247 19.9351 23.7813C19.594 23.638 19.2847 23.4285 19.0251 23.165L12.8751 17.051L6.72512 23.169C6.33015 23.5697 5.82361 23.8422 5.27154 23.9508C4.71947 24.0594 4.14747 23.9992 3.63012 23.778C3.10764 23.5678 2.66067 23.205 2.34758 22.7369C2.03449 22.2688 1.86984 21.7171 1.87512 21.154V5C1.87512 3.67392 2.40191 2.40215 3.33959 1.46447C4.27727 0.526784 5.54904 0 6.87512 0L18.8751 0C19.5317 0 20.1819 0.129329 20.7885 0.380602C21.3952 0.631876 21.9464 1.00017 22.4107 1.46447C22.875 1.92876 23.2433 2.47996 23.4945 3.08658C23.7458 3.69321 23.8751 4.34339 23.8751 5V21.154C23.8807 21.7167 23.7167 22.268 23.4043 22.7361C23.092 23.2041 22.6459 23.5672 22.1241 23.778C21.7719 23.9253 21.3939 24.0008 21.0121 24ZM6.87512 2C6.07947 2 5.31641 2.31607 4.7538 2.87868C4.19119 3.44129 3.87512 4.20435 3.87512 5V21.154C3.87476 21.3206 3.92379 21.4836 4.01602 21.6224C4.10825 21.7612 4.23955 21.8695 4.39331 21.9337C4.54708 21.9979 4.71643 22.0151 4.87996 21.9831C5.0435 21.9512 5.19388 21.8714 5.31212 21.754L12.1751 14.933C12.3625 14.7468 12.6159 14.6422 12.8801 14.6422C13.1443 14.6422 13.3978 14.7468 13.5851 14.933L20.4401 21.752C20.5584 21.8694 20.7088 21.9492 20.8723 21.9811C21.0358 22.0131 21.2052 21.9959 21.3589 21.9317C21.5127 21.8675 21.644 21.7592 21.7362 21.6204C21.8285 21.4816 21.8775 21.3186 21.8771 21.152V5C21.8771 4.20435 21.5611 3.44129 20.9984 2.87868C20.4358 2.31607 19.6728 2 18.8771 2H6.87512Z" fill="#313131"/>
</g>
<defs>
<clipPath id="clip0_9_261">
<rect width="24" height="24" fill="white" transform="translate(0.875)"/>
</clipPath>
</defs>
</svg>
