<svg width="25" height="24" viewBox="0 0 25 24" fill="none" xmlns="http://www.w3.org/2000/svg">
<g clip-path="url(#clip0_9_307)">
<path d="M24.5761 12.3L23.8711 7.3C23.6979 6.10993 23.1034 5.02151 22.1958 4.23247C21.2883 3.44343 20.1277 3.00612 18.9251 3H8.62514V18.584L10.2511 21.884C10.5739 22.5363 11.1201 23.051 11.7904 23.3346C12.4606 23.6181 13.2104 23.6516 13.9033 23.429C14.5962 23.2064 15.1861 22.7425 15.5658 22.1216C15.9455 21.5008 16.0897 20.7642 15.9721 20.046L15.6361 18H19.6251C20.3409 18 21.0484 17.8464 21.6996 17.5494C22.3509 17.2525 22.9308 16.8192 23.4002 16.2788C23.8696 15.7384 24.2175 15.1036 24.4204 14.4171C24.6232 13.7307 24.6764 13.0087 24.5761 12.3Z" fill="#374957"/>
<path d="M0.624992 8V13C0.62658 14.3256 1.15387 15.5964 2.09121 16.5338C3.02855 17.4711 4.2994 17.9984 5.62499 18H6.62499V3H5.62499C4.2994 3.00159 3.02855 3.52888 2.09121 4.46622C1.15387 5.40356 0.62658 6.67441 0.624992 8H0.624992Z" fill="#374957"/>
</g>
<defs>
<clipPath id="clip0_9_307">
<rect width="24" height="24" fill="white" transform="translate(0.625)"/>
</clipPath>
</defs>
</svg>
