<svg width="25" height="24" viewBox="0 0 25 24" fill="none" xmlns="http://www.w3.org/2000/svg">
<g clip-path="url(#clip0_9_35)">
<path d="M19.1562 0.930194L6.96421 13.1222C6.49855 13.5853 6.12939 14.1363 5.87809 14.743C5.6268 15.3498 5.49836 16.0004 5.50021 16.6572V18.0002C5.50021 18.2654 5.60557 18.5198 5.7931 18.7073C5.98064 18.8948 6.23499 19.0002 6.50021 19.0002H7.84321C8.49997 19.002 9.15058 18.8736 9.75737 18.6223C10.3642 18.371 10.9151 18.0019 11.3782 17.5362L23.5702 5.34419C24.1546 4.75836 24.4828 3.96467 24.4828 3.13719C24.4828 2.30972 24.1546 1.51602 23.5702 0.930194C22.9759 0.362088 22.1854 0.0450439 21.3632 0.0450439C20.541 0.0450439 19.7505 0.362088 19.1562 0.930194ZM22.1562 3.93019L9.96421 16.1222C9.40034 16.6826 8.63822 16.9981 7.84321 17.0002H7.50021V16.6572C7.50229 15.8622 7.81778 15.1001 8.37821 14.5362L20.5702 2.34419C20.7838 2.14015 21.0678 2.02629 21.3632 2.02629C21.6586 2.02629 21.9426 2.14015 22.1562 2.34419C22.3662 2.55471 22.484 2.83989 22.484 3.13719C22.484 3.4345 22.3662 3.71968 22.1562 3.93019Z" fill="#313131"/>
<path d="M23.5 8.979C23.2348 8.979 22.9804 9.08436 22.7929 9.27189C22.6054 9.45943 22.5 9.71379 22.5 9.979V15H18.5C17.7044 15 16.9413 15.3161 16.3787 15.8787C15.8161 16.4413 15.5 17.2044 15.5 18V22H5.5C4.70435 22 3.94129 21.6839 3.37868 21.1213C2.81607 20.5587 2.5 19.7957 2.5 19V5C2.5 4.20435 2.81607 3.44129 3.37868 2.87868C3.94129 2.31607 4.70435 2 5.5 2H14.542C14.8072 2 15.0616 1.89464 15.2491 1.70711C15.4366 1.51957 15.542 1.26522 15.542 1C15.542 0.734784 15.4366 0.48043 15.2491 0.292893C15.0616 0.105357 14.8072 0 14.542 0L5.5 0C4.17441 0.00158786 2.90356 0.528882 1.96622 1.46622C1.02888 2.40356 0.501588 3.67441 0.5 5L0.5 19C0.501588 20.3256 1.02888 21.5964 1.96622 22.5338C2.90356 23.4711 4.17441 23.9984 5.5 24H16.843C17.4999 24.0019 18.1507 23.8735 18.7576 23.6222C19.3646 23.3709 19.9157 23.0017 20.379 22.536L23.035 19.878C23.5008 19.4149 23.87 18.864 24.1215 18.2572C24.373 17.6504 24.5016 16.9998 24.5 16.343V9.979C24.5 9.71379 24.3946 9.45943 24.2071 9.27189C24.0196 9.08436 23.7652 8.979 23.5 8.979ZM18.965 21.122C18.563 21.523 18.0547 21.8006 17.5 21.922V18C17.5 17.7348 17.6054 17.4804 17.7929 17.2929C17.9804 17.1054 18.2348 17 18.5 17H22.425C22.3013 17.5535 22.024 18.0609 21.625 18.464L18.965 21.122Z" fill="#313131"/>
</g>
<defs>
<clipPath id="clip0_9_35">
<rect width="24" height="24" fill="white" transform="translate(0.5)"/>
</clipPath>
</defs>
</svg>
